HIERARCHY
ROOT Hips
{
	OFFSET 0.000000 0.000000 0.000000
	CHANNELS 6 Xposition Yposition Zposition Zrotation Yrotation Xrotation 
	JOINT LHipJoint
	{
		OFFSET 0.000000 0.000000 0.000000
		CHANNELS 3 Zrotation Yrotation Xrotation
		JOINT LeftUpLeg
		{
			OFFSET 1.363060 -1.794630 0.839290
			CHANNELS 3 Zrotation Yrotation Xrotation
			JOINT LeftLeg
			{
				OFFSET 2.448110 -6.726130 0.000000
				CHANNELS 3 Zrotation Yrotation Xrotation
				JOINT LeftFoot
				{
					OFFSET 2.562200 -7.039590 0.000000
					CHANNELS 3 Zrotation Yrotation Xrotation
					JOINT LeftToeBase
					{
						OFFSET 0.157640 -0.433110 2.322550
						CHANNELS 3 Zrotation Yrotation Xrotation
						End Site
						{
							OFFSET 0.000000 0.000000 0.000000
						}
					}
				}
			}
		}
	}
	JOINT RHipJoint
	{
		OFFSET 0.000000 0.000000 0.000000
		CHANNELS 3 Zrotation Yrotation Xrotation
		JOINT RightUpLeg
		{
			OFFSET -1.305520 -1.794630 0.839290
			CHANNELS 3 Zrotation Yrotation Xrotation
			JOINT RightLeg
			{
				OFFSET -2.542530 -6.985550 0.000000
				CHANNELS 3 Zrotation Yrotation Xrotation
				JOINT RightFoot
				{
					OFFSET -2.568260 -7.056230 0.000000
					CHANNELS 3 Zrotation Yrotation Xrotation
					JOINT RightToeBase
					{
						OFFSET -0.164730 -0.452590 2.363150
						CHANNELS 3 Zrotation Yrotation Xrotation
						End Site
						{
							OFFSET 0.000000 0.000000 0.000000
						}
					}
				}
			}
		}
	}
	JOINT LowerBack
	{
		OFFSET 0.000000 0.000000 0.000000
		CHANNELS 3 Zrotation Yrotation Xrotation
		JOINT Spine
		{
			OFFSET 0.028270 2.035590 -0.193380
			CHANNELS 3 Zrotation Yrotation Xrotation
			JOINT Spine1
			{
				OFFSET 0.056720 2.048850 -0.042750
				CHANNELS 3 Zrotation Yrotation Xrotation
				JOINT Neck
				{
					OFFSET 0.000000 0.000000 0.000000
					CHANNELS 3 Zrotation Yrotation Xrotation
					JOINT Neck1
					{
						OFFSET -0.054170 1.746240 0.172020
						CHANNELS 3 Zrotation Yrotation Xrotation
						JOINT Head
						{
							OFFSET 0.104070 1.761360 -0.123970
							CHANNELS 3 Zrotation Yrotation Xrotation
							End Site
							{
								OFFSET 0.000000 0.000000 0.000000
							}
						}
					}
				}
				JOINT LeftShoulder
				{
					OFFSET 0.000000 0.000000 0.000000
					CHANNELS 3 Zrotation Yrotation Xrotation
					JOINT LeftArm
					{
						OFFSET 3.362410 1.200890 -0.311210
						CHANNELS 3 Zrotation Yrotation Xrotation
						JOINT LeftForeArm
						{
							OFFSET 4.983000 -0.000000 -0.000000
							CHANNELS 3 Zrotation Yrotation Xrotation
							JOINT LeftHand
							{
								OFFSET 3.483560 -0.000000 -0.000000
								CHANNELS 3 Zrotation Yrotation Xrotation
								JOINT LeftFingerBase
								{
									OFFSET 0.000000 0.000000 0.000000
									CHANNELS 3 Zrotation Yrotation Xrotation
									JOINT LeftHandIndex1
									{
										OFFSET 0.715260 -0.000000 -0.000000
										CHANNELS 3 Zrotation Yrotation Xrotation
										End Site
										{
											OFFSET 0.000000 0.000000 0.000000
										}
									}
								}
								JOINT LThumb
								{
									OFFSET 0.000000 0.000000 0.000000
									CHANNELS 3 Zrotation Yrotation Xrotation
									End Site
									{
										OFFSET 0.000000 0.000000 0.000000
									}
								}
							}
						}
					}
				}
				JOINT RightShoulder
				{
					OFFSET 0.000000 0.000000 0.000000
					CHANNELS 3 Zrotation Yrotation Xrotation
					JOINT RightArm
					{
						OFFSET -3.136600 1.374050 -0.404650
						CHANNELS 3 Zrotation Yrotation Xrotation
						JOINT RightForeArm
						{
							OFFSET -5.241900 -0.000000 -0.000000
							CHANNELS 3 Zrotation Yrotation Xrotation
							JOINT RightHand
							{
								OFFSET -3.444170 -0.000000 -0.000000
								CHANNELS 3 Zrotation Yrotation Xrotation
								JOINT RightFingerBase
								{
									OFFSET 0.000000 0.000000 0.000000
									CHANNELS 3 Zrotation Yrotation Xrotation
									JOINT RightHandIndex1
									{
										OFFSET -0.622530 -0.000000 -0.000000
										CHANNELS 3 Zrotation Yrotation Xrotation
										End Site
										{
											OFFSET 0.000000 0.000000 0.000000
										}
									}
								}
								JOINT RThumb
								{
									OFFSET 0.000000 0.000000 0.000000
									CHANNELS 3 Zrotation Yrotation Xrotation
									End Site
									{
										OFFSET 0.000000 0.000000 0.000000
									}
								}
							}
						}
					}
				}
			}
		}
	}
}
MOTION
Frames: 8
Frame Time: 0.008333
19.021212 16.827207 2.201874 86.183223 -87.783375 -35.252463 -8.554312 -0.690139 3.402985 -7.033351 -8.074078 -55.848305 -2.544884 -2.000193 9.640652 3.367199 13.917673 -8.857603 0.835900 -0.000000 -46.903100 8.730657 0.922839 4.142247 2.992225 5.405346 -57.709203 2.676806 1.179814 13.287224 -3.214533 -9.022131 -13.011381 -0.224800 -0.000000 -59.681700 1.789882 -2.392995 -3.683924 -0.343094 -2.659343 -3.617607 -5.853381 -2.790189 1.106066 10.635786 -14.755084 -12.147784 -2.008099 -0.075643 -1.618405 0.000000 0.000000 0.000000 -1.031142 9.743680 2.199125 -62.860005 34.362372 17.536133 -1.630053 -57.489601 0.006841 2.984784 -4.818431 -0.131331 -0.108034 0.072519 -0.000000 0.000000 0.000000 0.000000 0.000000 0.000000 0.000000 14.098635 -12.326998 3.107980 68.296474 -21.455290 2.296052 2.534262 36.212939 0.009487 -3.654993 6.522286 -0.220440 0.146972 -0.131383 0.000000 0.000000 0.000000 0.000000 0.000000 0.000000 0.000000 
18.998186 16.753533 2.203020 87.138365 -87.551780 -35.000849 -8.431772 -0.664433 3.590133 -6.829134 -9.004704 -58.254760 -2.519134 -1.838460 11.955515 3.596819 14.105858 -10.442679 0.446200 0.000000 -46.864500 8.713315 0.993202 4.285717 2.454307 5.645016 -60.308044 2.649147 0.874067 15.827761 -3.316203 -8.803049 -14.350982 0.024700 0.000000 -59.326600 1.658524 -2.442262 -3.897435 -0.382328 -2.711469 -3.674356 -5.867086 -2.847225 1.092832 10.838408 -14.806040 -12.369610 -2.054114 -0.075294 -1.705574 0.000000 0.000000 0.000000 -1.190848 9.894484 2.289067 -63.490723 34.171284 16.027591 -1.585668 -57.736673 0.006429 3.347893 -5.066170 -0.154621 -0.109223 0.081927 -0.000000 0.000000 0.000000 0.000000 0.000000 0.000000 0.000000 14.601283 -12.352175 3.156810 68.312067 -21.249043 1.824977 2.478013 36.446743 0.009014 -3.631436 6.579012 -0.221045 0.144605 -0.137650 0.000000 0.000000 0.000000 0.000000 0.000000 0.000000 0.000000 
18.974504 16.668240 2.204698 87.402082 -87.303173 -34.019957 -8.313577 -0.620020 3.796881 -6.631344 -9.933953 -60.849335 -2.499377 -1.642337 14.481490 3.819406 14.200699 -12.086918 0.026200 0.000000 -46.825099 8.705839 1.065065 4.448335 1.886798 5.846501 -63.051117 2.617490 0.535790 18.547323 -3.414251 -8.556679 -15.745678 0.279100 0.000000 -58.837600 1.545852 -2.492005 -4.163627 -0.418749 -2.767814 -3.745949 -5.886530 -2.909462 1.076071 11.035049 -14.814654 -12.582781 -2.112994 -0.076338 -1.790188 0.000000 0.000000 0.000000 -1.415119 10.015088 2.381111 -64.076277 33.875068 14.496083 -1.544914 -57.872870 0.005915 3.689539 -5.307101 -0.178315 -0.109868 0.090645 -0.000000 0.000000 0.000000 0.000000 0.000000 0.000000 0.000000 15.137678 -12.341710 3.203613 68.317420 -20.980802 1.259590 2.421390 36.623378 0.008405 -3.637896 6.603971 -0.222349 0.142412 -0.143884 0.000000 0.000000 0.000000 0.000000 0.000000 0.000000 0.000000 
18.950051 16.570039 2.206846 87.234324 -87.030365 -32.564959 -8.204073 -0.558689 4.029834 -6.430380 -10.876302 -63.627738 -2.479522 -1.412773 17.193564 4.036063 14.228182 -13.754494 -0.407400 0.000001 -46.756600 8.709577 1.137438 4.634185 1.284092 5.999185 -65.955898 2.579620 0.161188 21.458096 -3.507301 -8.283086 -17.188078 0.535100 0.000000 -58.206800 1.442897 -2.541508 -4.496009 -0.452362 -2.827511 -3.832448 -5.904262 -2.975872 1.067700 11.220264 -14.813644 -12.791796 -2.176597 -0.077990 -1.873038 0.000000 0.000000 0.000000 -1.670800 10.132817 2.473694 -64.623300 33.431201 12.985521 -1.509985 -57.850124 0.005327 4.013470 -5.537601 -0.202312 -0.110221 0.098691 -0.000000 0.000000 0.000000 0.000000 0.000000 0.000000 0.000000 15.676905 -12.331319 3.245840 68.308651 -20.627870 0.665077 2.364560 36.731168 0.007674 -3.694889 6.607220 -0.225954 0.140675 -0.149938 0.000000 0.000000 0.000000 0.000000 0.000000 0.000000 0.000000 
18.924486 16.457974 2.209659 86.772479 -86.734881 -30.776190 -8.107962 -0.484031 4.292005 -6.214327 -11.830766 -66.584464 -2.453805 -1.149342 20.078931 4.245944 14.202199 -15.419204 -0.842300 -0.000001 -46.615801 8.724738 1.208405 4.846989 0.647812 6.101656 -69.022893 2.532114 -0.250479 24.558003 -3.596410 -7.994032 -18.667010 0.789000 0.000000 -57.431500 1.351271 -2.588349 -4.904303 -0.482438 -2.888646 -3.937024 -5.919578 -3.044625 1.065378 11.386812 -14.794780 -12.987873 -2.243807 -0.080330 -1.950905 0.000000 0.000000 0.000000 -1.952506 10.228681 2.565314 -65.133786 32.875817 11.486481 -1.481344 -57.675953 0.004684 4.310688 -5.745747 -0.225213 -0.110281 0.105890 -0.000000 0.000000 0.000000 0.000000 0.000000 0.000000 0.000000 16.202515 -12.311916 3.283722 68.297400 -20.225393 0.023394 2.308569 36.790122 0.006852 -3.785706 6.594456 -0.230961 0.139308 -0.155808 0.000000 0.000000 0.000000 0.000000 0.000000 0.000000 0.000000 
18.897585 16.331145 2.213182 86.160405 -86.418225 -28.801186 -8.028415 -0.400448 4.585205 -5.970929 -12.796666 -69.708579 -2.415710 -0.852935 23.125233 4.449576 14.141014 -17.061439 -1.269699 0.000000 -46.359600 8.752265 1.276986 5.088816 -0.019455 6.151402 -72.245596 2.470867 -0.698884 27.842273 -3.682934 -7.702335 -20.172150 1.038700 -0.000000 -56.521500 1.270131 -2.630819 -5.394896 -0.508630 -2.949678 -4.060986 -5.930997 -3.114116 1.070319 11.529931 -14.760412 -13.167139 -2.312289 -0.083236 -2.022097 0.000000 0.000000 0.000000 -2.248720 10.299711 2.654645 -65.609802 32.224680 10.004823 -1.459362 -57.350949 0.004013 4.578519 -5.924506 -0.246518 -0.110122 0.112171 -0.000000 0.000000 0.000000 0.000000 0.000000 0.000000 0.000000 16.699195 -12.285459 3.316695 68.287873 -19.789663 -0.657851 2.254427 36.810757 0.005979 -3.901562 6.575096 -0.237267 0.138299 -0.161480 0.000000 0.000000 0.000000 0.000000 0.000000 0.000000 0.000000 
18.869302 16.189033 2.217501 85.498056 -86.084336 -26.751734 -7.966941 -0.313437 4.907864 -5.689505 -13.768454 -72.980852 -2.358876 -0.524920 26.323436 4.647661 14.062225 -18.668894 -1.685200 -0.000001 -45.947200 8.792945 1.343254 5.359300 -0.711718 6.147031 -75.604955 2.391315 -1.181679 31.298605 -3.769022 -7.423901 -21.693458 1.283700 0.000000 -55.501500 1.199594 -2.667711 -5.967863 -0.530573 -3.009357 -4.204187 -5.937960 -3.182948 1.083198 11.647053 -14.711964 -13.327645 -2.380366 -0.086607 -2.085573 0.000000 0.000000 0.000000 -2.550769 10.347182 2.740508 -66.050280 31.491292 8.551716 -1.444006 -56.882840 0.003337 4.817785 -6.068924 -0.265625 -0.109825 0.117489 -0.000000 0.000000 0.000000 0.000000 0.000000 0.000000 0.000000 17.156257 -12.252325 3.344335 68.281310 -19.332103 -1.367822 2.203291 36.800959 0.005097 -4.034675 6.558854 -0.244675 0.137632 -0.166938 0.000000 0.000000 0.000000 0.000000 0.000000 0.000000 0.000000 
18.839417 16.031557 2.222691 84.846860 -85.740636 -24.705837 -7.923557 -0.229430 5.254846 -5.361026 -14.734996 -76.373285 -2.277405 -0.167331 29.666923 4.840964 13.982714 -20.236391 -2.088300 0.000000 -45.351501 8.847173 1.408071 5.654957 -1.417338 6.088718 -79.067446 2.289201 -1.694323 34.906803 -3.857109 -7.175838 -23.220636 1.524999 0.000000 -54.413000 1.141194 -2.698317 -6.615871 -0.547630 -3.066699 -4.364120 -5.940092 -3.249876 1.106107 11.738232 -14.656124 -13.471619 -2.446175 -0.090242 -2.141751 0.000000 0.000000 0.000000 -2.850380 10.384141 2.821758 -66.451046 30.674993 7.150299 -1.435055 -56.277376 0.002672 5.034679 -6.178979 -0.282534 -0.109498 0.121864 -0.000000 0.000000 0.000000 0.000000 0.000000 0.000000 0.000000 17.566941 -12.218082 3.366025 68.272818 -18.847409 -2.081108 2.156246 36.758096 0.004235 -4.184803 6.556649 -0.253682 0.137353 -0.172163 0.000000 0.000000 0.000000 0.000000 0.000000 0.000000 0.000000 
